<svg width="351" height="290" viewBox="0 0 351 290" fill="none" xmlns="http://www.w3.org/2000/svg">
<path d="M175.663 274.583C121.815 274.583 78.1627 230.931 78.1627 177.083C78.1627 123.235 121.815 79.583 175.663 79.583C229.51 79.583 273.163 123.235 273.163 177.083C273.163 230.931 229.51 274.583 175.663 274.583Z" fill="#8DCF00"/>
<path d="M58.6414 229.208C61.7513 233.326 68.6092 237.796 78.5154 237.556L66.8688 244.263L78.9012 257.717L80.2323 256.951C78.8332 251.7 79.8111 249.808 83.6933 247.572L114.418 229.877C120.186 226.555 122.199 225.691 125.847 229.203L127.289 228.372L116.493 209.627L115.051 210.457C116.352 215.025 115.008 216.538 108.796 220.116L81.1774 236.022C71.7655 236.864 64.8233 230.966 66.9006 230.212C68.5342 229.715 69.7676 228.266 70.4128 226.565C71.7334 222.702 69.7832 218.803 66.2064 217.466C62.4549 216.081 58.492 217.921 57.1076 221.672C56.2272 224.247 57.2697 227.34 58.6414 229.208Z" fill="black"/>
<path d="M75.2548 187.272C59.1414 186.587 49.3861 177.973 49.6957 170.684C49.9565 164.545 57.8548 156.553 76.5259 157.347L75.2548 187.272ZM93.466 150.635C99.6346 153.204 103.981 162.484 102.887 170.125C101.435 180.184 94.2035 187.564 76.9173 187.342L78.6556 146.419C58.5777 145.566 48.6797 155.395 48.0495 170.23C47.376 186.087 59.1423 198.63 78.0692 199.434C94.95 200.151 108.733 189.334 109.412 173.349C110.053 158.258 100.121 150.79 94.1706 149.128L93.466 150.635Z" fill="black"/>
<path d="M141.676 110.349C137.904 113.026 135.746 112.208 130.37 107.663L109.06 89.6487C97.2322 79.6498 88.7097 81.9989 82.0162 89.9168C76.8102 96.0752 75.7027 106.704 79.637 113.55L69.3731 104.873L60.8042 120.759L61.9772 121.751C66.5232 118.554 68.455 118.846 71.8764 121.739L99.1492 144.794C104.135 149.008 105.714 150.511 103.649 155.134L104.92 156.208L118.802 139.786L117.531 138.712C113.677 141.487 111.797 140.737 106.421 136.192L82.6673 116.111C79.8093 112.354 78.3924 104.117 82.6894 99.0339C88.1434 92.5823 95.5171 92.7818 102.164 98.401L123.181 116.168C128.166 120.382 129.858 122.148 127.793 126.771L128.966 127.763L142.849 111.34L141.676 110.349Z" fill="black"/>
<path d="M181.755 89.769C180.646 95.3922 174.207 102.989 164.919 104.269C155.854 105.369 144.953 100.583 141.255 83.9655C136.054 60.6013 148.964 53.7939 153.961 52.6816C162.333 50.8183 166.485 53.5659 165.416 54.066C164.194 54.4691 163.042 55.7745 162.501 57.4685C161.461 60.4538 163.142 63.8825 166.377 64.8671C169.363 65.9073 172.861 63.9486 173.901 60.9633C174.58 58.7139 173.802 56.3956 172.413 54.8689C170.844 53.1201 165.844 48.332 153.6 51.0573C134.484 55.3122 126.52 72.5582 129.941 87.9262C134.029 106.293 149.831 114.84 163.825 111.725C179.193 108.304 183.284 96.6408 183.268 90.0878L181.755 89.769Z" fill="black"/>
<path d="M237.574 66.404L236.893 67.7805C250.256 74.2534 234.056 88.8002 234.056 88.8002L216.149 105.93L217.031 68.3743C217.031 68.3743 217.162 58.0126 224.618 61.704L225.3 60.3274L201.554 48.5719L200.873 49.9484C202.537 50.915 206.325 53.3615 206.006 59.7741C206.006 59.7741 205.856 79.6955 204.571 116.623L192.197 128.636C188.49 132.085 185.286 132.498 185.622 130.665C185.901 128.947 185.607 126.944 184.342 125.461C182.041 122.608 177.803 122.224 174.779 124.583C171.984 127.056 171.485 131.236 173.901 134.146C175.569 136.258 178.95 137.217 181.181 136.751C183.468 136.169 187.872 135.064 193.46 129.547L235.262 89.8258C250.606 75.8549 255.017 76.7533 259.032 78.741L259.713 77.3644L237.574 66.404Z" fill="black"/>
<path d="M262.194 163.829C256.465 163.986 247.636 159.378 244.341 150.601C241.271 142 243.539 130.313 258.933 123.045C280.578 112.825 290.062 123.918 292.248 128.548C295.909 136.303 294.144 140.958 293.421 140.026C292.758 138.923 291.231 138.087 289.46 137.932C286.319 137.575 283.344 139.97 283.097 143.343C282.74 146.484 285.421 149.465 288.562 149.822C290.906 149.989 292.996 148.719 294.179 147.028C295.539 145.112 299.108 139.18 293.752 127.837C285.391 110.128 266.814 106.159 252.577 112.881C235.563 120.915 230.707 138.212 236.828 151.176C243.55 165.413 255.828 166.834 262.217 165.375L262.194 163.829Z" fill="black"/>
<path d="M244.413 190.236C245.72 185.799 247.661 185.226 254.696 185.47L337.334 188.342L334.494 170.569L332.831 170.511C331.625 175.72 329.794 176.809 325.317 176.654L255.088 174.213C248.563 173.986 246.398 173.655 245.159 168.745L243.496 168.687L242.75 190.178L244.413 190.236Z" fill="black"/>
<path d="M270.178 212.8C284.242 220.694 289.05 232.787 285.479 239.149C282.472 244.507 271.814 248.066 255.517 238.919L270.178 212.8ZM237.373 237.248C233.032 232.169 233.35 221.926 237.779 215.605C243.621 207.288 253.408 203.974 268.727 211.986L248.678 247.704C266.202 257.54 279.474 253.247 286.742 240.299C294.511 226.458 289.685 209.951 273.165 200.679C258.431 192.409 241.247 195.827 233.415 209.78C226.023 222.951 231.506 234.102 236.063 238.274L237.373 237.248Z" fill="black"/>
<path d="M169 160C185.769 155.758 204.33 142.48 211 136C211 166 203.397 182.943 199 188C179 211 157.131 200.318 153 192C143.29 172.447 157.14 163 169 160Z" fill="#17A400" stroke="black" stroke-width="4" stroke-linecap="round" stroke-linejoin="round"/>
<path d="M139 212C139.824 208 143.777 198.8 153 194Z" fill="#17A400"/>
<path d="M139 212C139.824 208 143.777 198.8 153 194" stroke="black" stroke-width="4" stroke-linecap="round" stroke-linejoin="round"/>
</svg>
